:SAMPLES-PER-SECOND 30
:FRAME-RANGE 1-3358
:FULLY-SPECIFIED
:DEGREES
630
root  52.7954 38.1008 7.77045 -168.532 -46.7249 175.63
RightUpLeg  12.444 -6.04443 -2.19529
RightLeg  6.87936 -4.64379 0.408153
RightFoot  -21.3149 0.701234 9.67681
RightToes  -5.8209e-011 0 -3.6325e-017
Spine  10.3674 8.22125 14.3183
Spine1  1.51295 13.9253 -21.5427
HEad  -3.59386 -14.9212 3.32839
LeftShoulder1  0.690904 1.69667 -32.1496
LeftArm  3.86725 27.3528 -31.3818
LeftForeArm  8.91058 -5.95774 -16.2892
LeftHand  0.660165 -2.4294 -9.60908
RightShoulder  21.4644 30.0542 55.5441
RightArm  39.6285 14.3975 29.6572
RightForeArm  18.4815 8.26227 16.0124
RightHand  -0.0488707 7.18964 -0.809947
LeftUpLeg  -34.3743 2.40374 -8.26733
LeftLeg  10.8754 9.25664 -0.792579
LeftFoot  -3.01476 0.929695 -12.486
LeftToes  -4.03819e-010 -8.71445e-011 8.52097e-011
631
root  51.781 37.7257 6.58168 -169.847 -44.7622 176.72
RightUpLeg  13.2432 -7.25942 -2.97304
RightLeg  11.49 0.238874 0.529845
RightFoot  -21.9722 0.98141 12.1157
RightToes  -5.8209e-011 0 -3.6325e-017
Spine  10.1378 8.02457 13.1427
Spine1  1.65903 13.5024 -20.7489
HEad  -3.59349 -13.3629 3.62963
LeftShoulder1  0.725415 1.59936 -32.0101
LeftArm  3.91534 26.2991 -31.5267
LeftForeArm  9.15339 -6.09288 -16.2199
LeftHand  0.600621 -2.31522 -8.86839
RightShoulder  19.9951 28.4132 54.488
RightArm  27.8222 12.8671 27.5681
RightForeArm  24.2503 1.59655 17.7036
RightHand  0.0451341 6.6791 0.0844115
LeftUpLeg  -34.4551 5.28026 -11.0177
LeftLeg  13.5952 6.28337 -0.0647734
LeftFoot  0.0915161 0.471226 -4.71273
LeftToes  -4.03819e-010 -8.71445e-011 8.52097e-011
632
root  50.7486 37.3889 5.40079 -170.903 -42.7871 176.864
RightUpLeg  12.5605 -7.36301 -4.78719
RightLeg  19.7788 5.71373 2.06757
RightFoot  -21.2897 1.22264 15.628
RightToes  -5.8209e-011 0 -3.6325e-017
Spine  10.7222 7.79153 10.5558
Spine1  1.48217 12.8568 -19.5347
HEad  -3.56011 -11.6219 4.27941
LeftShoulder1  0.751565 1.53751 -32.1429
LeftArm  5.99651 24.8748 -30.7581
LeftForeArm  7.51029 -7.11773 -16.0016
LeftHand  0.537775 -2.07156 -8.20593
RightShoulder  18.6899 26.616 54.0315
RightArm  25.1996 10.6371 23.9792
RightForeArm  20.433 -0.0524211 18.2267
RightHand  0.0474374 6.28805 0.131204
LeftUpLeg  -34.8156 3.69829 -11.5749
LeftLeg  19.2782 6.63186 2.86532
LeftFoot  3.93115 -0.809268 5.85249
LeftToes  -4.03819e-010 -8.71445e-011 8.52097e-011
633
root  49.7315 36.9424 4.1832 -171.44 -42.2612 176.106
RightUpLeg  9.1716 -5.71399 -6.74993
RightLeg  33.1754 9.0749 6.10371
RightFoot  -16.8776 0.916416 21.1179
RightToes  -5.8209e-011 0 -3.6325e-017
Spine  11.9025 7.12127 7.15107
Spine1  0.410109 11.2053 -17.4677
HEad  -3.54743 -10.1942 4.94875
LeftShoulder1  0.893461 1.20228 -32.745
LeftArm  6.47222 21.6271 -29.3856
LeftForeArm  6.7911 -6.72078 -16.2308
LeftHand  0.448164 -1.62979 -7.28676
RightShoulder  16.841 24.2438 52.9346
RightArm  24.7075 9.38393 20.7471
RightForeArm  17.9112 -0.855194 18.5683
RightHand  0.0155311 6.11968 -0.178842
LeftUpLeg  -35.9472 0.656541 -10.6948
LeftLeg  29.0026 9.36663 5.92419
LeftFoot  -1.11115 -0.434959 4.93128
LeftToes  -4.03819e-010 -8.71445e-011 8.52097e-011
634
root  48.8093 36.7274 3.10063 -171.744 -41.4505 175.219
RightUpLeg  2.67119 -2.07159 -7.9636
RightLeg  48.0778 8.18667 9.33852
RightFoot  -5.65751 -1.19233 22.9452
RightToes  -5.8209e-011 0 -3.6325e-017
Spine  12.3338 6.85018 4.53078
Spine1  1.29661 10.616 -16.5716
HEad  -3.318 -9.458 5.35184
LeftShoulder1  1.11821 0.590015 -32.3125
LeftArm  3.65549 16.3958 -29.2575
LeftForeArm  8.98407 -3.93317 -16.9377
LeftHand  0.373762 -1.13181 -6.57234
RightShoulder  15.1938 22.3684 51.2871
RightArm  22.5045 8.02061 17.5515
RightForeArm  19.0117 -1.32643 18.4818
RightHand  -0.0106433 6.14574 -0.442767
LeftUpLeg  -35.0248 1.52962 -11.4573
LeftLeg  33.8604 9.02589 6.82806
LeftFoot  -5.41729 -0.23712 5.21065
LeftToes  -4.03819e-010 -8.71445e-011 8.52097e-011
635
root  48.0309 36.4686 2.12436 -171.035 -40.6378 173.914
RightUpLeg  -5.57574 1.74113 -8.8899
RightLeg  60.8861 5.49946 10.1157
RightFoot  6.83279 -3.4206 21.453
RightToes  -5.8209e-011 0 -3.6325e-017
Spine  12.2199 6.45506 1.47506
Spine1  2.14368 9.80728 -16.3107
HEad  -2.11408 -8.36666 5.55858
LeftShoulder1  1.20449 0.281617 -31.3201
LeftArm  0.0343508 11.1829 -29.4987
LeftForeArm  12.1792 -1.98485 -16.987
LeftHand  0.344166 -1.07971 -6.09884
RightShoulder  14.1248 21.4233 49.5109
RightArm  23.3508 6.60629 15.0607
RightForeArm  17.2683 -1.12429 18.6491
RightHand  -0.0357694 5.98332 -0.696134
LeftUpLeg  -34.7125 3.05625 -12.6606
LeftLeg  37.7243 8.16995 7.12226
LeftFoot  -9.2908 -0.034748 5.06423
LeftToes  -4.03819e-010 -8.71445e-011 8.52097e-011
